<svg width="20" height="20" viewBox="0 0 20 20" fill="none" xmlns="http://www.w3.org/2000/svg">
<rect width="20" height="20" fill="#1E1E1E"/>
<g id="Vendor Form - Company Details" clip-path="url(#clip0_0_1)">
<rect width="1728" height="2323" transform="translate(-715 -695)" fill="white"/>
<g id="Group 1707479220">
<g id="Group 78">
<g id="Group 22">
<g id="Group 17">
<g id="Group 13">
<g id="Group 11">
<g id="Group 1707479300">
<g id="Group 1707479219">
<circle id="Ellipse 34" cx="10" cy="10" r="10" fill="#AEAEAE"/>
<path id="Vector" d="M7.58717 7.02667C7.05384 6.8 6.82717 6.14 7.14717 5.66C7.79384 4.7 8.87384 4 10.3005 4C11.8672 4 12.9405 4.71333 13.4872 5.60667C13.9538 6.37333 14.2272 7.80667 13.5072 8.87333C12.7072 10.0533 11.9405 10.4133 11.5272 11.1733C11.4272 11.3533 11.3672 11.5 11.3272 11.8C11.2672 12.2867 10.8672 12.6667 10.3738 12.6667C9.79384 12.6667 9.32051 12.1667 9.38717 11.5867C9.42717 11.2467 9.50717 10.8933 9.69384 10.56C10.2072 9.63333 11.1938 9.08667 11.7672 8.26667C12.3738 7.40667 12.0338 5.8 10.3138 5.8C9.53384 5.8 9.02717 6.20667 8.71384 6.69333C8.48051 7.07333 7.99384 7.19333 7.58717 7.02667ZM11.6405 15.3333C11.6405 16.0667 11.0405 16.6667 10.3072 16.6667C9.57384 16.6667 8.97384 16.0667 8.97384 15.3333C8.97384 14.6 9.57384 14 10.3072 14C11.0405 14 11.6405 14.6 11.6405 15.3333Z" fill="white"/>
</g>
</g>
</g>
</g>
</g>
</g>
</g>
</g>
</g>
<g id="Group 1707479383">
<rect id="Rectangle 583" x="-1101" y="-1211" width="18211" height="5341" stroke="white" stroke-width="10"/>
</g>
<defs>
<clipPath id="clip0_0_1">
<rect width="1728" height="2323" fill="white" transform="translate(-715 -695)"/>
</clipPath>
</defs>
</svg>
