<svg width="32" height="32" viewBox="0 0 32 32" fill="none" xmlns="http://www.w3.org/2000/svg">
<rect width="32" height="32" fill="#1E1E1E"/>
<g id="Vendor Form - Company Details" clip-path="url(#clip0_0_1)">
<rect width="1728" height="2323" transform="translate(-1514 -1874)" fill="white"/>
<g id="Group 1707479220">
<g id="Group 78">
<g id="Group 27">
<g id="Frame 3">
<g id="Add more button">
<rect id="Rectangle 7" x="-11" y="-7" width="175" height="45" rx="5" fill="#2568EF"/>
<g id="Group 34">
<g id="Group 35">
<g id="ic:round-plus">
<path id="Vector" d="M24.0003 17.3307H17.3337V23.9974C17.3337 24.351 17.1932 24.6902 16.9431 24.9402C16.6931 25.1903 16.3539 25.3307 16.0003 25.3307C15.6467 25.3307 15.3076 25.1903 15.0575 24.9402C14.8075 24.6902 14.667 24.351 14.667 23.9974V17.3307H8.00033C7.6467 17.3307 7.30757 17.1903 7.05752 16.9402C6.80747 16.6902 6.66699 16.351 6.66699 15.9974C6.66699 15.6438 6.80747 15.3046 7.05752 15.0546C7.30757 14.8045 7.6467 14.6641 8.00033 14.6641H14.667V7.9974C14.667 7.64377 14.8075 7.30463 15.0575 7.05459C15.3076 6.80454 15.6467 6.66406 16.0003 6.66406C16.3539 6.66406 16.6931 6.80454 16.9431 7.05459C17.1932 7.30463 17.3337 7.64377 17.3337 7.9974V14.6641H24.0003C24.3539 14.6641 24.6931 14.8045 24.9431 15.0546C25.1932 15.3046 25.3337 15.6438 25.3337 15.9974C25.3337 16.351 25.1932 16.6902 24.9431 16.9402C24.6931 17.1903 24.3539 17.3307 24.0003 17.3307Z" fill="white"/>
</g>
</g>
</g>
</g>
</g>
</g>
</g>
</g>
</g>
<g id="Group 1707479383">
<rect id="Rectangle 583" x="-1900" y="-2390" width="18211" height="5341" stroke="white" stroke-width="10"/>
</g>
<defs>
<clipPath id="clip0_0_1">
<rect width="1728" height="2323" fill="white" transform="translate(-1514 -1874)"/>
</clipPath>
</defs>
</svg>
