<svg width="282" height="282" viewBox="0 0 282 282" fill="none" xmlns="http://www.w3.org/2000/svg">
<path d="M281.625 141C281.625 153 266.883 162.891 263.93 173.953C260.883 185.391 268.594 201.328 262.805 211.336C256.922 221.508 239.227 222.727 230.977 230.977C222.727 239.227 221.508 256.922 211.336 262.805C201.328 268.594 185.391 260.883 173.953 263.93C162.891 266.883 153 281.625 141 281.625C129 281.625 119.109 266.883 108.047 263.93C96.6094 260.883 80.6719 268.594 70.6641 262.805C60.4922 256.922 59.2734 239.227 51.0234 230.977C42.7734 222.727 25.0781 221.508 19.1953 211.336C13.4062 201.328 21.1172 185.391 18.0703 173.953C15.1172 162.891 0.375 153 0.375 141C0.375 129 15.1172 119.109 18.0703 108.047C21.1172 96.6094 13.4062 80.6719 19.1953 70.6641C25.0781 60.4922 42.7734 59.2734 51.0234 51.0234C59.2734 42.7734 60.4922 25.0781 70.6641 19.1953C80.6719 13.4062 96.6094 21.1172 108.047 18.0703C119.109 15.1172 129 0.375 141 0.375C153 0.375 162.891 15.1172 173.953 18.0703C185.391 21.1172 201.328 13.4062 211.336 19.1953C221.508 25.0781 222.727 42.7734 230.977 51.0234C239.227 59.2734 256.922 60.4922 262.805 70.6641C268.594 80.6719 260.883 96.6094 263.93 108.047C266.883 119.109 281.625 129 281.625 141Z" fill="#2568EF"/>
</svg>
