<svg width="134" height="97" viewBox="0 0 134 97" fill="none" xmlns="http://www.w3.org/2000/svg">
<rect width="134" height="97" fill="#1E1E1E"/>
<g id="Vendor Form - Successful page" clip-path="url(#clip0_0_1)">
<rect width="1728" height="1117" transform="translate(-797 -414)" fill="white"/>
<g id="Group 82">
<g id="checklist 1">
<g id="Group">
<path id="Vector" d="M207.625 47C207.625 59 192.883 68.8906 189.93 79.9531C186.883 91.3906 194.594 107.328 188.805 117.336C182.922 127.508 165.227 128.727 156.977 136.977C148.727 145.227 147.508 162.922 137.336 168.805C127.328 174.594 111.391 166.883 99.9531 169.93C88.8906 172.883 79 187.625 67 187.625C55 187.625 45.1094 172.883 34.0469 169.93C22.6094 166.883 6.67188 174.594 -3.33593 168.805C-13.5078 162.922 -14.7266 145.227 -22.9766 136.977C-31.2266 128.727 -48.9219 127.508 -54.8047 117.336C-60.5938 107.328 -52.8828 91.3906 -55.9297 79.9531C-58.8828 68.8906 -73.625 59 -73.625 47C-73.625 35 -58.8828 25.1094 -55.9297 14.0469C-52.8828 2.60938 -60.5938 -13.3281 -54.8047 -23.3359C-48.9219 -33.5078 -31.2266 -34.7266 -22.9766 -42.9766C-14.7266 -51.2266 -13.5078 -68.9219 -3.33593 -74.8047C6.67188 -80.5938 22.6094 -72.8828 34.0469 -75.9297C45.1094 -78.8828 55 -93.625 67 -93.625C79 -93.625 88.8906 -78.8828 99.9531 -75.9297C111.391 -72.8828 127.328 -80.5938 137.336 -74.8047C147.508 -68.9219 148.727 -51.2266 156.977 -42.9766C165.227 -34.7266 182.922 -33.5078 188.805 -23.3359C194.594 -13.3281 186.883 2.60938 189.93 14.0469C192.883 25.1094 207.625 35 207.625 47Z" fill="#2568EF"/>
<path id="Vector_2" d="M107.641 5.09375L54.1094 58.625L26.3594 30.8984C20.3359 24.875 10.5625 24.875 4.53906 30.8984C-1.48437 36.9219 -1.48437 46.6953 4.53906 52.7188L43.4688 91.6485C49.3281 97.5078 58.8438 97.5078 64.7031 91.6485L129.438 26.9141C135.461 20.8906 135.461 11.1172 129.438 5.09375C123.414 -0.929687 113.664 -0.929687 107.641 5.09375Z" fill="#FFFCEE"/>
</g>
</g>
</g>
</g>
<g id="Group 1707479383">
<rect id="Rectangle 583" x="-16433" y="-930" width="18211" height="5341" stroke="white" stroke-width="10"/>
</g>
<defs>
<clipPath id="clip0_0_1">
<rect width="1728" height="1117" fill="white" transform="translate(-797 -414)"/>
</clipPath>
</defs>
</svg>
